# xmcd
#
# Track frame offsets:
#	150
#	8556
#	27422
#	38021
#	52133
#	56572
#	69124
#	79096
#	92951
#	102176
#	108625
#	115317
#	138954
#	155934
#	159617
#	174065
#	224903
#	230523
#	252612
#	274987
#
# Disc length: 3853 seconds
#
# Revision: 0
# Processed by: cddbd v1.5.1PL2 Copyright (c) Steve Scherf et al.
# Submitted via: EasyCDDAExtractor 8.2.2.1
#
DISCID=200f0b14
DTITLE=Thanassis Papapolitis - Unreleased Live and Studio Recordings
DYEAR=2006
DGENRE=Blues
TTITLE0=Get Funky
TTITLE1=April's Blues
TTITLE2=Acoustic Jam
TTITLE3=Serbian Blues
TTITLE4=2 Guitars
TTITLE5=In The Deep South (acoustic)
TTITLE6=April's Blues alt
TTITLE7=Battle Cry
TTITLE8=Blues for R
TTITLE9=Country Blues
TTITLE10=Cajun Riff
TTITLE11=Impending Disaster
TTITLE12=Hard Blues Guitar
TTITLE13=Open E Riff
TTITLE14=Kamelot
TTITLE15=Improvisation
TTITLE16=Sullen Guitars
TTITLE17=First Rusttle
TTITLE18=Ideas in Am
TTITLE19=Ideas In Bm
EXTD=http://papapolitis.4t.com/\nhttp://ldcb.8m.com/
EXTT0=
EXTT1=
EXTT2=
EXTT3=
EXTT4=
EXTT5=
EXTT6=
EXTT7=
EXTT8=
EXTT9=
EXTT10=
EXTT11=
EXTT12=
EXTT13=
EXTT14=
EXTT15=
EXTT16=
EXTT17=
EXTT18=
EXTT19=
PLAYORDER=
